<svg id="Layer_1" data-name="Layer 1" xmlns="http://www.w3.org/2000/svg" viewBox="0 0 685.67 7590.98"><defs><style>.cls-1{fill:#ed1c24;}</style></defs><path class="cls-1" d="M1280.8,112.16c-6,8.46-11.68,17.21-17.27,26s-11,17.66-16.35,26.6c-10.64,17.9-20.8,36.07-30.64,54.41s-19.23,36.92-28.3,55.65-17.73,37.65-26.19,56.66A1866,1866,0,0,0,1077.3,566a1963.31,1963.31,0,0,0-53.39,243.41,1984.81,1984.81,0,0,0-22,248.08c-.21,10.38-.49,20.76-.63,31.14v31.15c-.11,10.38.24,20.76.43,31.14l.33,15.57.17,7.78.34,7.78,1.33,31.11c.18,5.19.57,10.37.9,15.55l1,15.54c1.13,20.73,3.28,41.39,5,62.07,4.25,41.3,9.09,82.56,15.78,123.54l2.41,15.39,1.2,7.69,1.38,7.66,5.51,30.65c1.73,10.24,3.91,20.39,6,30.57l6.23,30.51c35.42,162.31,88.32,320.65,155.28,472.8l25.75,56.78,27,56.21,28.22,55.62,14.25,28c1.2,2.32,2.34,4.68,3.48,7l3.43,7.07,6.86,14.12a1833.19,1833.19,0,0,1,92,233.32,2086.05,2086.05,0,0,1,61.21,243q11.72,61.55,20.07,123.65c5.63,41.38,10.11,82.9,13.68,124.49,14.15,166.42,12.56,333.9-.61,500.27q-5,62.4-12,124.62t-16,124.17q-18.08,123.9-43.26,246.64T1372,4214q-15.72,60.61-33,120.83t-35.91,120q-74.59,239.16-170.81,470.9c-32,77.16-65.6,153.66-101.59,229.13q-6.76,14.14-13.66,28.24l-7,14.08-3.52,7-3.51,6.9c-.27.54-.62,1.19-.82,1.63l-.68,1.53-1.53,3.5-3,7.08c-2,4.75-3.95,9.51-5.86,14.32-3.86,9.57-7.53,19.25-11.17,28.93-7.24,19.4-14,39-20.56,58.65-3.3,9.83-6.4,19.72-9.55,29.6-1.56,4.94-3,9.91-4.56,14.87s-3.06,9.91-4.48,14.89a2272.33,2272.33,0,0,0-57.08,242.21c-7.29,40.86-13.68,81.88-18.9,123.06s-9.22,82.5-12.44,123.88a2360.4,2360.4,0,0,0,15.3,496.95c.35,2.57.65,5.15,1,7.72l1.17,7.69,2.35,15.39,2.35,15.4c.81,5.12,1.49,10.27,2.45,15.37l5.38,30.67,2.69,15.34,3,15.27,6.07,30.55c.52,2.54,1,5.1,1.54,7.63l1.7,7.6,3.39,15.2c2.28,10.13,4.47,20.27,6.83,30.39l7.5,30.23a2309.79,2309.79,0,0,0,73.35,238.07,2414.06,2414.06,0,0,0,98.37,229.05l14,27.86c4.71,9.27,9.22,18.64,14.24,27.75l14.73,27.49,7.36,13.75,3.69,6.88,3.85,6.78,15.4,27.13,7.71,13.56c2.57,4.52,5.09,9.07,7.82,13.49l32.25,53.44c87.9,141.4,189.56,274.09,300.32,398.67l-1.48,1.35c-113.41-122.31-217.4-253.78-307.49-394.57l-33.08-53.22c-2.81-4.41-5.4-8.95-8-13.45l-7.92-13.53-15.83-27.05-4-6.76-3.79-6.86-7.54-13.73-15.1-27.48c-5.14-9.1-9.78-18.47-14.61-27.73l-14.39-27.86a2374.82,2374.82,0,0,1-101.32-229.43c-3.67-9.79-7.18-19.65-10.77-29.47s-7.21-19.64-10.67-29.51l-10-29.75-5-14.88-2.5-7.44-2.31-7.5c-12.49-39.93-24.35-80.08-34.65-120.65l-7.77-30.42c-2.44-10.17-4.72-20.39-7.09-30.58l-3.52-15.3-1.76-7.65c-.58-2.55-1.07-5.12-1.61-7.68l-6.33-30.75-3.15-15.38-2.81-15.44-5.61-30.9c-1-5.14-1.71-10.33-2.55-15.49L853.24,6406l-2.45-15.5-1.23-7.76c-.39-2.58-.72-5.18-1.08-7.77l-4.22-31.12-1.06-7.78c-.36-2.59-.71-5.19-1-7.79l-1.78-15.6-3.53-31.2L834,6250.18l-1.43-15.63c-.42-5.22-.75-10.45-1.13-15.67l-2.21-31.32c-.62-10.45-1.07-20.91-1.62-31.37l-.78-15.68c-.27-5.23-.34-10.47-.52-15.7l-.94-31.39c-.2-10.47-.25-20.94-.37-31.41l-.16-15.7.13-15.7.33-31.41c.65-20.93,1-41.87,2.15-62.78l.73-15.68.38-7.85.5-7.83,2-31.35q4.67-62.64,12.44-125l4.15-31.14c.65-5.19,1.49-10.36,2.25-15.54l2.32-15.53c1.48-10.37,3.27-20.69,5-31l2.58-15.49,2.81-15.45a2247.82,2247.82,0,0,1,58.13-244.39c1.45-5,3-10,4.57-15s3.06-10,4.66-15c3.21-10,6.37-20,9.74-29.9q10-29.82,21-59.3c3.74-9.81,7.51-19.61,11.48-29.35,2-4.88,4-9.74,6-14.6l3.14-7.29L983,5206l.93-2c.35-.74.62-1.23.94-1.86l3.61-7,3.51-6.94,7-13.93q6.91-13.95,13.69-28c36.11-74.91,70-151,102.19-227.74q96.56-230.31,173-468.47,19.08-59.46,36.82-119.34t34.12-120.15q32.61-120.59,59.18-242.7c17.54-81.42,33-163.31,45.58-245.65q9.51-61.74,17-123.78t12.72-124.3q5.22-62.25,8.09-124.68t3.12-124.91c.35-83.29-2.9-166.62-10.32-249.57q-5.52-62.2-14.32-124.06t-21-123.07a2020.3,2020.3,0,0,0-63.67-241.15,1826.13,1826.13,0,0,0-94.3-230.56l-7-13.92-3.49-7c-1.16-2.33-2.32-4.65-3.54-6.93l-14.45-27.6-29-55.61-27.69-56.27c-8.81-19-17.66-37.91-26.38-56.91l-12.55-28.75-6.27-14.38-3.13-7.19-1.57-3.59-1.49-3.63-11.86-29-5.93-14.52-3-7.26-2.81-7.33-11.19-29.31-5.59-14.66-1.39-3.67-1.31-3.7-2.62-7.39-10.47-29.59c-1.73-4.93-3.53-9.84-5.2-14.8l-4.89-14.91a2315.53,2315.53,0,0,1-66.2-242.11l-6.22-30.78c-2-10.26-4.23-20.5-6-30.82l-5.48-30.92-1.36-7.73-1.19-7.76-2.37-15.52c-6.59-41.34-11.31-83-15.44-124.61l-2.6-31.29-.64-7.83-.32-3.91-.24-3.92-.94-15.67-.93-15.67c-.31-5.22-.68-10.44-.82-15.67l-1.18-31.38-.3-7.84-.13-7.85-.24-15.69c-.14-10.47-.44-20.93-.27-31.4l.22-31.39c.22-10.46.58-20.92.86-31.38a1955.31,1955.31,0,0,1,24.18-249.74q10.22-61.92,24.26-123.11T1067,563a1822.58,1822.58,0,0,1,88.63-234.38c8.79-18.95,17.8-37.79,27.31-56.39s19.22-37.08,29.45-55.29,20.8-36.21,31.85-53.93c5.53-8.85,11.16-17.64,17-26.32s11.71-17.27,18-25.67Z" transform="translate(-824.88 -110.97)"/></svg>